<mxfile host="app.diagrams.net" agent="Mozilla/5.0 (Macintosh; Intel Mac OS X 10_15_7) AppleWebKit/537.36 (KHTML, like Gecko) Chrome/131.0.0.0 Safari/537.36" version="25.0.3">
  <diagram name="Page-1" id="9psYAJ0W74f5PtH3eG8J">
    <mxGraphModel dx="1026" dy="650" grid="1" gridSize="10" guides="1" tooltips="1" connect="1" arrows="1" fold="1" page="1" pageScale="1" pageWidth="850" pageHeight="1100" math="0" shadow="0">
      <root>
        <mxCell id="0" />
        <mxCell id="1" parent="0" />
        <mxCell id="o0onuaMI4SHTX3f1gUfq-1" value="Spark" style="rounded=1;whiteSpace=wrap;html=1;fillColor=#d5e8d4;strokeColor=#82b366;" vertex="1" parent="1">
          <mxGeometry x="210" y="200" width="120" height="60" as="geometry" />
        </mxCell>
        <mxCell id="o0onuaMI4SHTX3f1gUfq-2" value="Flink" style="rounded=1;whiteSpace=wrap;html=1;fillColor=#d5e8d4;strokeColor=#82b366;" vertex="1" parent="1">
          <mxGeometry x="370" y="200" width="120" height="60" as="geometry" />
        </mxCell>
        <mxCell id="o0onuaMI4SHTX3f1gUfq-3" value="SR" style="rounded=1;whiteSpace=wrap;html=1;fillColor=#d5e8d4;strokeColor=#82b366;" vertex="1" parent="1">
          <mxGeometry x="520" y="200" width="120" height="60" as="geometry" />
        </mxCell>
        <mxCell id="o0onuaMI4SHTX3f1gUfq-4" value="Hive" style="shape=cylinder3;whiteSpace=wrap;html=1;boundedLbl=1;backgroundOutline=1;size=15;fillColor=#f8cecc;strokeColor=#b85450;" vertex="1" parent="1">
          <mxGeometry x="220" y="370" width="60" height="80" as="geometry" />
        </mxCell>
        <mxCell id="o0onuaMI4SHTX3f1gUfq-5" value="Iceberg" style="shape=cylinder3;whiteSpace=wrap;html=1;boundedLbl=1;backgroundOutline=1;size=15;fillColor=#f8cecc;strokeColor=#b85450;" vertex="1" parent="1">
          <mxGeometry x="340" y="370" width="60" height="80" as="geometry" />
        </mxCell>
        <mxCell id="o0onuaMI4SHTX3f1gUfq-6" value="Kafka" style="shape=cylinder3;whiteSpace=wrap;html=1;boundedLbl=1;backgroundOutline=1;size=15;fillColor=#f8cecc;strokeColor=#b85450;" vertex="1" parent="1">
          <mxGeometry x="460" y="370" width="60" height="80" as="geometry" />
        </mxCell>
        <mxCell id="o0onuaMI4SHTX3f1gUfq-7" value="RDS" style="shape=cylinder3;whiteSpace=wrap;html=1;boundedLbl=1;backgroundOutline=1;size=15;fillColor=#f8cecc;strokeColor=#b85450;" vertex="1" parent="1">
          <mxGeometry x="580" y="370" width="60" height="80" as="geometry" />
        </mxCell>
        <mxCell id="o0onuaMI4SHTX3f1gUfq-8" value="" style="endArrow=classic;html=1;rounded=0;exitX=0.5;exitY=1;exitDx=0;exitDy=0;entryX=0.5;entryY=0;entryDx=0;entryDy=0;entryPerimeter=0;" edge="1" parent="1" source="o0onuaMI4SHTX3f1gUfq-1" target="o0onuaMI4SHTX3f1gUfq-5">
          <mxGeometry width="50" height="50" relative="1" as="geometry">
            <mxPoint x="260" y="340" as="sourcePoint" />
            <mxPoint x="310" y="290" as="targetPoint" />
          </mxGeometry>
        </mxCell>
        <mxCell id="o0onuaMI4SHTX3f1gUfq-9" value="" style="endArrow=classic;html=1;rounded=0;exitX=0.5;exitY=1;exitDx=0;exitDy=0;entryX=0.5;entryY=0;entryDx=0;entryDy=0;entryPerimeter=0;" edge="1" parent="1" source="o0onuaMI4SHTX3f1gUfq-1" target="o0onuaMI4SHTX3f1gUfq-4">
          <mxGeometry width="50" height="50" relative="1" as="geometry">
            <mxPoint x="272" y="274" as="sourcePoint" />
            <mxPoint x="370" y="380" as="targetPoint" />
          </mxGeometry>
        </mxCell>
        <mxCell id="o0onuaMI4SHTX3f1gUfq-11" value="" style="endArrow=classic;html=1;rounded=0;entryX=0.5;entryY=0;entryDx=0;entryDy=0;entryPerimeter=0;" edge="1" parent="1" target="o0onuaMI4SHTX3f1gUfq-7">
          <mxGeometry width="50" height="50" relative="1" as="geometry">
            <mxPoint x="270" y="260" as="sourcePoint" />
            <mxPoint x="370" y="380" as="targetPoint" />
          </mxGeometry>
        </mxCell>
        <mxCell id="o0onuaMI4SHTX3f1gUfq-13" value="" style="endArrow=classic;html=1;rounded=0;exitX=0.5;exitY=1;exitDx=0;exitDy=0;entryX=0.5;entryY=0;entryDx=0;entryDy=0;entryPerimeter=0;" edge="1" parent="1" source="o0onuaMI4SHTX3f1gUfq-1" target="o0onuaMI4SHTX3f1gUfq-6">
          <mxGeometry width="50" height="50" relative="1" as="geometry">
            <mxPoint x="280" y="270" as="sourcePoint" />
            <mxPoint x="370" y="380" as="targetPoint" />
          </mxGeometry>
        </mxCell>
        <mxCell id="o0onuaMI4SHTX3f1gUfq-14" value="" style="endArrow=classic;html=1;rounded=0;exitX=0.5;exitY=1;exitDx=0;exitDy=0;" edge="1" parent="1" source="o0onuaMI4SHTX3f1gUfq-2">
          <mxGeometry width="50" height="50" relative="1" as="geometry">
            <mxPoint x="140" y="650" as="sourcePoint" />
            <mxPoint x="250" y="370" as="targetPoint" />
          </mxGeometry>
        </mxCell>
        <mxCell id="o0onuaMI4SHTX3f1gUfq-15" value="" style="endArrow=classic;html=1;rounded=0;exitX=0.5;exitY=1;exitDx=0;exitDy=0;entryX=0.5;entryY=0;entryDx=0;entryDy=0;entryPerimeter=0;" edge="1" parent="1" source="o0onuaMI4SHTX3f1gUfq-2" target="o0onuaMI4SHTX3f1gUfq-5">
          <mxGeometry width="50" height="50" relative="1" as="geometry">
            <mxPoint x="440" y="270" as="sourcePoint" />
            <mxPoint x="260" y="380" as="targetPoint" />
          </mxGeometry>
        </mxCell>
        <mxCell id="o0onuaMI4SHTX3f1gUfq-16" value="" style="endArrow=classic;html=1;rounded=0;exitX=0.5;exitY=1;exitDx=0;exitDy=0;" edge="1" parent="1" source="o0onuaMI4SHTX3f1gUfq-2">
          <mxGeometry width="50" height="50" relative="1" as="geometry">
            <mxPoint x="440" y="270" as="sourcePoint" />
            <mxPoint x="490" y="368" as="targetPoint" />
          </mxGeometry>
        </mxCell>
        <mxCell id="o0onuaMI4SHTX3f1gUfq-17" value="" style="endArrow=classic;html=1;rounded=0;exitX=0.5;exitY=1;exitDx=0;exitDy=0;" edge="1" parent="1" source="o0onuaMI4SHTX3f1gUfq-3">
          <mxGeometry width="50" height="50" relative="1" as="geometry">
            <mxPoint x="440" y="270" as="sourcePoint" />
            <mxPoint x="370" y="370" as="targetPoint" />
          </mxGeometry>
        </mxCell>
        <mxCell id="o0onuaMI4SHTX3f1gUfq-18" value="" style="endArrow=classic;html=1;rounded=0;exitX=0.5;exitY=1;exitDx=0;exitDy=0;" edge="1" parent="1" source="o0onuaMI4SHTX3f1gUfq-3" target="o0onuaMI4SHTX3f1gUfq-7">
          <mxGeometry width="50" height="50" relative="1" as="geometry">
            <mxPoint x="590" y="270" as="sourcePoint" />
            <mxPoint x="380" y="380" as="targetPoint" />
          </mxGeometry>
        </mxCell>
        <mxCell id="o0onuaMI4SHTX3f1gUfq-19" value="" style="endArrow=classic;html=1;rounded=0;exitX=0.45;exitY=1.017;exitDx=0;exitDy=0;exitPerimeter=0;entryX=0.617;entryY=0;entryDx=0;entryDy=0;entryPerimeter=0;" edge="1" parent="1" source="o0onuaMI4SHTX3f1gUfq-3" target="o0onuaMI4SHTX3f1gUfq-4">
          <mxGeometry width="50" height="50" relative="1" as="geometry">
            <mxPoint x="590" y="270" as="sourcePoint" />
            <mxPoint x="380" y="380" as="targetPoint" />
          </mxGeometry>
        </mxCell>
      </root>
    </mxGraphModel>
  </diagram>
</mxfile>
